<svg width="885" height="885" viewBox="0 0 885 885" fill="none" xmlns="http://www.w3.org/2000/svg">
<path d="M607.881 92.3422C620.913 64.7502 654.083 52.6661 679.837 69.0326C748.816 112.868 804.634 175.174 840.621 249.352C884.685 340.179 896.369 443.343 873.732 541.724C851.095 640.105 795.499 727.788 716.169 790.223C636.84 852.658 538.547 886.09 437.602 884.973C336.656 883.855 239.127 848.255 161.2 784.079C83.2719 719.903 29.6306 631.011 9.17725 532.153C-11.2761 433.295 2.68814 330.415 48.7527 240.586C86.3733 167.223 143.557 106.167 213.489 63.8699C239.599 48.0775 272.494 60.893 284.912 88.7667C297.329 116.64 284.455 148.944 259.024 165.807C211.851 197.089 173.188 240.099 147.081 291.009C112.52 358.405 102.043 435.594 117.389 509.764C132.734 583.935 172.98 650.629 231.447 698.778C289.914 746.928 363.088 773.638 438.825 774.477C514.562 775.315 588.309 750.231 647.827 703.388C707.346 656.545 749.059 590.758 766.043 516.945C783.026 443.133 774.261 365.731 741.2 297.586C716.227 246.111 678.526 202.255 632.057 169.937C607.005 152.514 594.849 119.934 607.881 92.3422Z" fill="white" fill-opacity="0.3"/>
<path d="M607.881 92.3422C620.913 64.7502 654.083 52.6658 679.838 69.0319C762.382 121.486 825.705 200.161 859.053 293.201C898.649 403.678 892.737 525.359 842.617 631.477C792.498 737.595 702.276 819.456 591.799 859.053C498.759 892.4 397.771 893.47 304.826 863.039C275.826 853.545 264.088 820.25 277.119 792.658C290.151 765.066 323.036 753.759 352.406 762.04C418.429 780.655 489.091 778.478 554.515 755.029C637.403 725.321 705.095 663.902 742.698 584.285C780.302 504.667 784.737 413.373 755.029 330.485C731.58 265.06 688.375 209.103 632.058 169.937C607.006 152.514 594.849 119.934 607.881 92.3422Z" fill="url(#paint0_linear_800_4132)"/>
<path d="M442.5 166C595.207 166 719 289.793 719 442.5C719 595.207 595.207 719 442.5 719C289.793 719 166 595.207 166 442.5C166 289.793 289.793 166 442.5 166ZM421.281 265.734C392.993 291.222 369.606 313.209 351.121 331.694C332.636 350.18 317.931 366.775 307.008 381.479C296.085 396.184 288.453 409.699 284.111 422.022C279.77 434.346 277.6 446.95 277.6 459.834C277.6 486.162 286.422 508.149 304.067 525.794C321.712 543.439 343.699 552.262 370.026 552.262C384.591 552.262 398.455 549.181 411.619 543.02C414.454 541.693 417.203 540.247 419.868 538.687L387.496 613.449C384.027 621.462 389.901 630.406 398.633 630.406H492.656C501.388 630.406 507.262 621.462 503.792 613.449L471.416 538.68C474.086 540.243 476.84 541.691 479.679 543.02C492.842 549.181 506.706 552.262 521.271 552.262C547.598 552.262 569.584 543.439 587.229 525.794C604.875 508.149 613.697 486.162 613.697 459.834C613.697 446.95 611.527 434.346 607.186 422.022C602.844 409.699 595.212 396.184 584.289 381.479C573.366 366.775 558.661 350.18 540.176 331.694C521.69 313.209 498.304 291.222 470.016 265.734L445.648 243.888L421.281 265.734Z" fill="url(#paint1_linear_800_4132)"/>
<defs>
<linearGradient id="paint0_linear_800_4132" x1="59.2838" y1="663.75" x2="825.716" y2="221.25" gradientUnits="userSpaceOnUse">
<stop stop-color="#32A36F"/>
<stop offset="0.484375" stop-color="#79D127"/>
<stop offset="1" stop-color="#FFEE00"/>
</linearGradient>
<linearGradient id="paint1_linear_800_4132" x1="203.044" y1="580.75" x2="681.956" y2="304.25" gradientUnits="userSpaceOnUse">
<stop stop-color="#32A36F"/>
<stop offset="0.484375" stop-color="#79D127"/>
<stop offset="1" stop-color="#FFEE00"/>
</linearGradient>
</defs>
</svg>
